<?xml version="1.0" encoding="utf-8"?>
<!-- Generator: Adobe Illustrator 16.0.0, SVG Export Plug-In . SVG Version: 6.00 Build 0)  -->
<svg version="1.2" baseProfile="tiny" id="圖層_1"
	 xmlns="http://www.w3.org/2000/svg" xmlns:xlink="http://www.w3.org/1999/xlink" x="0px" y="0px" width="320px" height="102px"
	 viewBox="0 0 320 102" xml:space="preserve">
<g>
	<g>
		<path fill="#221E1F" d="M92.625,25.5c0,8.948-5.892,14.871-16.844,14.871h-6.148v10.685c0,1.48-0.704,1.866-1.857,1.866h-6.341
			c-1.152,0-1.857-0.386-1.857-1.866V12.435c0-1.159,0.384-1.868,1.857-1.868h14.411C86.86,10.567,92.625,16.618,92.625,25.5z
			 M82.954,25.695c0-3.348-2.178-6.052-7.174-6.052h-6.148v12.039h6.148C80.776,31.681,82.954,28.913,82.954,25.695z"/>
		<path fill="#221E1F" d="M131.759,52.922h-6.725c-1.409,0-1.921-0.386-2.435-1.93l-1.792-5.085h-15.692l-1.793,5.085
			c-0.512,1.544-1.024,1.93-2.434,1.93h-6.725c-1.409,0-1.409-1.029-1.088-1.802l14.218-38.558c0.512-1.352,1.217-1.996,2.626-1.996
			h6.147c1.409,0,2.05,0.644,2.626,1.996l14.153,38.558C133.168,51.894,133.168,52.922,131.759,52.922z M117.797,36.895
			l-4.804-14.226l-4.803,14.226H117.797z"/>
		<path fill="#221E1F" d="M169.805,40.371c0,9.141-7.174,13.517-17.036,13.517c-8.007,0-17.229-4.635-17.229-13.647
			c0-1.479,0.385-1.802,1.857-1.802h6.213c1.473,0,2.176,0.194,2.305,1.802c0.064,0.837,0.383,1.674,1.216,2.64
			c1.281,1.544,3.908,2.125,6.276,2.125c3.459,0,6.277-0.773,6.277-4.377c0-3.605-5.701-3.669-11.145-5.407
			c-6.469-2.059-12.425-4.635-12.425-12.81c0-8.368,7.558-12.487,15.563-12.81c8.134,0,17.037,3.734,17.037,12.231
			c0,1.544-0.385,1.803-1.856,1.803h-6.277c-1.217,0-1.409-0.902-1.729-1.739c-0.257-0.643-0.576-1.158-1.345-1.931
			c-1.218-1.159-3.523-1.738-5.444-1.738c-2.114,0-5.636,0.837-5.636,3.733c0,3.927,9.415,5.344,11.977,6.373
			C163.016,29.75,169.805,31.615,169.805,40.371z"/>
		<path fill="#221E1F" d="M208.555,40.371c0,9.141-7.174,13.517-17.036,13.517c-8.006,0-17.229-4.635-17.229-13.647
			c0-1.479,0.385-1.802,1.857-1.802h6.213c1.473,0,2.177,0.194,2.306,1.802c0.064,0.837,0.384,1.674,1.216,2.64
			c1.281,1.544,3.907,2.125,6.277,2.125c3.458,0,6.276-0.773,6.276-4.377c0-3.605-5.7-3.669-11.145-5.407
			c-6.468-2.059-12.424-4.635-12.424-12.81c0-8.368,7.557-12.487,15.562-12.81c8.134,0,17.037,3.734,17.037,12.231
			c0,1.544-0.385,1.803-1.857,1.803h-6.277c-1.217,0-1.409-0.902-1.729-1.739c-0.257-0.643-0.575-1.158-1.345-1.931
			c-1.217-1.159-3.522-1.738-5.444-1.738c-2.113,0-5.635,0.837-5.635,3.733c0,3.927,9.413,5.344,11.976,6.373
			C201.766,29.75,208.555,31.615,208.555,40.371z"/>
		<path fill="#221E1F" d="M236.226,45.971v5.085c0,1.158-0.385,1.866-1.856,1.866h-18.126c-1.474,0-1.857-0.708-1.857-1.866v-5.085
			c0-1.159,0.384-1.866,1.857-1.866h4.035v-24.59h-3.908c-1.472,0-1.856-0.708-1.856-1.866v-5.213c0-1.159,0.385-1.868,1.856-1.868
			h17.806c1.472,0,1.856,0.708,1.856,1.868v5.213c0,1.158-0.385,1.866-1.856,1.866h-3.842v24.59h4.035
			C235.841,44.104,236.226,44.812,236.226,45.971z"/>
		<path fill="#221E1F" d="M277.599,39.34c0,10.171-9.606,14.548-17.229,14.548c-7.62,0-17.099-4.376-17.099-14.548V24.149
			c0-10.17,9.479-14.548,17.099-14.548c7.622,0,17.229,4.378,17.229,14.548V39.34z M267.545,25.05c0-4.12-2.946-6.501-7.175-6.501
			c-4.162,0-7.108,2.381-7.108,6.501v13.389c0,4.119,2.946,6.502,7.108,6.502c4.229,0,7.175-2.383,7.175-6.502V25.05z"/>
		<path fill="#221E1F" d="M320,12.435v38.622c0,1.158-0.383,1.866-1.856,1.866h-5.827c-1.603,0-2.051-0.9-2.884-2.188
			l-13.577-22.079v22.401c0,1.48-0.704,1.866-1.858,1.866h-6.341c-1.151,0-1.856-0.386-1.856-1.866V12.435
			c0-1.159,0.385-1.868,1.856-1.868h6.021c1.601,0,2.049,0.901,2.883,2.188l13.577,22.015V12.435c0-1.481,0.704-1.868,1.858-1.868
			h6.147C319.296,10.567,320,10.953,320,12.435z"/>
		<path fill="#221E1F" d="M95.506,89.64c0,8.176-6.341,12.36-15.242,12.36H61.434c-1.473,0-1.857-0.71-1.857-1.867V61.447
			c0-1.158,0.384-1.867,1.857-1.867h17.934c10.439,0,14.923,5.601,14.923,11.651c0,6.502-4.1,8.561-4.677,8.819
			C90.126,80.242,95.506,82.689,95.506,89.64z M85.324,88.676c0-3.025-2.242-3.928-5.316-3.928h-1.473
			c-1.473,0-1.857-0.708-1.857-1.867v-4.891c0-1.159,0.385-1.869,1.857-1.869h0.833c3.714,0,5.316-1.35,5.316-3.861
			c0-2.896-1.986-3.604-5.316-3.604h-9.735V92.86h10.76C83.53,92.86,85.324,91.572,85.324,88.676z"/>
		<path fill="#221E1F" d="M135.987,94.855v5.278c0,1.157-0.384,1.867-1.858,1.867h-28.693c-1.472,0-1.857-0.71-1.857-1.867V61.512
			c0-1.16,0.385-1.869,1.857-1.869h27.604c1.473,0,1.857,0.709,1.857,1.869v5.342c0,1.159-0.385,1.866-1.857,1.866h-19.341v7.017
			h17.164c1.474,0,1.857,0.708,1.857,1.867v5.021c0,1.157-0.383,1.866-1.857,1.866h-17.164v8.495h20.43
			C135.603,92.987,135.987,93.696,135.987,94.855z"/>
		<path fill="#221E1F" d="M178.9,102h-6.726c-1.408,0-1.921-0.388-2.435-1.932l-1.791-5.085h-15.692l-1.794,5.085
			c-0.512,1.544-1.024,1.932-2.433,1.932h-6.725c-1.409,0-1.409-1.029-1.088-1.803l14.218-38.558
			c0.512-1.352,1.217-1.997,2.626-1.997h6.147c1.409,0,2.05,0.646,2.627,1.997l14.154,38.558C180.309,100.971,180.309,102,178.9,102
			z M164.938,85.971l-4.805-14.225l-4.803,14.225H164.938z"/>
		<path fill="#221E1F" d="M219.892,61.512v38.621c0,1.157-0.384,1.867-1.857,1.867h-5.827c-1.603,0-2.05-0.902-2.884-2.189
			l-13.577-22.078v22.4c0,1.479-0.704,1.867-1.858,1.867h-6.34c-1.152,0-1.857-0.388-1.857-1.867V61.512
			c0-1.16,0.385-1.869,1.857-1.869h6.021c1.6,0,2.048,0.902,2.882,2.189l13.577,22.015V61.512c0-1.482,0.704-1.869,1.858-1.869
			h6.147C219.187,59.643,219.892,60.03,219.892,61.512z"/>
	</g>
	<g>
		<path fill="#221E1F" d="M235.961,80.127v-0.102c0-0.385,0.153-0.745,0.485-1.104c0.229-0.205,0.638-0.309,1.225-0.309
			c0.562,0,0.944,0.13,1.198,0.334c0.307,0.256,0.485,0.616,0.485,1.078v0.102h2.885c0.331,0,0.586,0.076,0.738,0.23
			c0.154,0.129,0.255,0.411,0.255,0.873c0,0.359-0.05,0.614-0.153,0.743c-0.178,0.256-0.458,0.358-0.84,0.358h-2.885v1.411h3.495
			c0.358,0,0.613,0.077,0.792,0.206c0.204,0.153,0.307,0.436,0.307,0.896c0,0.41-0.076,0.667-0.18,0.821
			c-0.204,0.257-0.51,0.359-0.919,0.359h-1.709v0.82c0,0.205,0.103,0.281,0.306,0.281h1.276c0.052-0.102,0.127-0.205,0.23-0.307
			c0.203-0.258,0.535-0.385,0.995-0.385c0.383,0,0.816,0.181,1.302,0.538c0.076,0.077,0.152,0.129,0.203,0.153
			c0.153-1.025,0.256-2.077,0.281-3.204h-1.098c-0.459,0-0.765-0.104-0.944-0.333c-0.178-0.156-0.255-0.488-0.255-0.95
			c0-0.514,0.101-0.898,0.331-1.103c0.153-0.129,0.435-0.206,0.868-0.206h1.098V79.82c0-0.41,0.128-0.743,0.382-1.025
			c0.229-0.154,0.562-0.257,1.021-0.281c0.51,0.024,0.918,0.127,1.174,0.332c0.203,0.231,0.306,0.564,0.306,0.975v1.513h2.502
			c1.378,0,2.092,0.667,2.092,2.002c0,0.076-0.026,0.23-0.052,0.435c-0.153,1.641-0.256,3.669-0.357,6.078
			c0,1.027,0.076,1.692,0.229,2.026c0.076,0.205,0.229,0.282,0.485,0.282c0.178,0,0.306-0.103,0.383-0.308
			c0.152-0.257,0.357-0.41,0.612-0.41c0.383,0.024,0.688,0.153,0.894,0.41c0.203,0.282,0.306,0.691,0.306,1.205
			c0,0.154-0.05,0.307-0.103,0.487c-0.229,0.924-0.663,1.539-1.326,1.898c-0.23,0.153-0.562,0.204-0.969,0.204
			c-1.125,0-1.915-0.385-2.426-1.129c-0.255-0.436-0.459-1-0.562-1.691c-0.05,0.051-0.076,0.076-0.076,0.102
			c-0.255,0.41-0.638,0.616-1.122,0.616c-0.357,0-0.69-0.153-1.046-0.461c-0.333-0.31-0.638-0.616-0.92-0.874
			c-0.434,1.078-0.942,2.104-1.529,3.053c-0.358,0.334-0.792,0.488-1.302,0.488c-0.562,0-0.996-0.13-1.252-0.411
			c-0.102-0.077-0.178-0.179-0.229-0.282c-0.05,0.104-0.075,0.155-0.127,0.205c-0.204,0.23-0.46,0.358-0.766,0.385l-9.389,0.513
			c-0.461,0-0.793-0.127-0.996-0.383c-0.178-0.156-0.281-0.463-0.281-0.924c0-0.438,0.127-0.745,0.383-0.925
			c0.154-0.152,0.434-0.256,0.791-0.28l3.6-0.154v-1.437h-3.19c-0.306,0-0.561-0.077-0.716-0.257
			c-0.203-0.153-0.28-0.437-0.28-0.846c0-0.41,0.077-0.666,0.28-0.82c0.129-0.104,0.358-0.181,0.716-0.181h3.19v-0.614
			c0-0.385,0.152-0.745,0.459-1.104c0.203-0.179,0.587-0.283,1.147-0.283c0.509,0,0.893,0.104,1.122,0.31
			c0.307,0.255,0.459,0.615,0.459,1.077v0.614h2.705c0.306,0,0.562,0.077,0.715,0.206c0.178,0.102,0.281,0.385,0.281,0.795
			c0,0.358-0.077,0.615-0.179,0.742c-0.179,0.257-0.459,0.36-0.817,0.36h-2.705v1.307l2.298-0.102c0.434,0,0.766,0.102,1.021,0.309
			c0.051,0.051,0.128,0.127,0.178,0.178c0.052-0.153,0.102-0.281,0.205-0.385c0.765-1.077,1.352-2.179,1.76-3.309
			c-0.484-0.384-0.944-0.742-1.378-1.101c-0.179-0.053-0.306-0.129-0.382-0.205h-2.603c-1.2,0-1.787-0.59-1.787-1.796v-0.923h-2.04
			c-0.153,0.563-0.409,1.102-0.767,1.589c-0.612,0.82-1.505,1.488-2.653,1.951c-0.204,0.127-0.485,0.178-0.816,0.178
			c-0.434,0-0.715-0.077-0.869-0.281c-0.229-0.207-0.33-0.411-0.33-0.616c0-0.309,0.077-0.589,0.28-0.794
			c0.945-0.385,1.659-0.847,2.118-1.36c0.152-0.179,0.28-0.409,0.382-0.666h-1.3c-0.334,0-0.587-0.077-0.767-0.283
			c-0.229-0.153-0.331-0.435-0.331-0.897c0-0.435,0.102-0.743,0.331-0.922c0.128-0.104,0.383-0.181,0.767-0.181h3.393v-1.411h-2.985
			c-0.306,0-0.562-0.076-0.715-0.256c-0.203-0.153-0.279-0.437-0.279-0.846c0-0.437,0.076-0.744,0.279-0.899
			c0.128-0.128,0.357-0.204,0.715-0.204H235.961z M235.604,96.797c0.357,0.179,0.562,0.59,0.562,1.257
			c0,0.181-0.101,0.437-0.255,0.744c-0.459,0.999-0.918,1.796-1.429,2.359c-0.281,0.461-0.715,0.718-1.302,0.718
			c-0.459,0-0.843-0.153-1.198-0.461c-0.409-0.282-0.613-0.667-0.613-1.155c0-0.179,0.05-0.359,0.179-0.539
			c0.561-0.64,1.071-1.436,1.53-2.359c0.229-0.666,0.587-0.999,1.099-0.999C234.763,96.362,235.248,96.515,235.604,96.797z
			 M241.039,97.054c0.281,0.307,0.613,0.923,1.021,1.795c0.256,0.59,0.383,1.051,0.383,1.41c0,0.411-0.127,0.719-0.383,0.925
			c-0.28,0.307-0.689,0.461-1.2,0.484c-0.509,0-0.867-0.076-1.07-0.23c-0.179-0.101-0.281-0.28-0.332-0.485
			c-0.357-0.718-0.842-1.617-1.454-2.745c-0.053-0.052-0.053-0.153-0.053-0.256c0-0.154,0.026-0.385,0.129-0.641
			c0.153-0.283,0.409-0.514,0.816-0.668c0.255-0.103,0.51-0.18,0.766-0.18C240.273,96.463,240.733,96.669,241.039,97.054z
			 M246.525,96.849c0.357,0.333,0.764,0.973,1.249,1.896c0.308,0.643,0.46,1.129,0.46,1.514c0,0.411-0.128,0.719-0.382,0.925
			c-0.308,0.307-0.715,0.461-1.226,0.484c-0.484,0-0.842-0.076-1.071-0.23c-0.179-0.101-0.281-0.28-0.332-0.485
			c-0.407-0.77-0.97-1.719-1.735-2.924c-0.051-0.077-0.051-0.18-0.051-0.282c0-0.155,0.025-0.359,0.127-0.616
			c0.153-0.307,0.409-0.537,0.816-0.692c0.256-0.102,0.511-0.179,0.767-0.179C245.759,96.259,246.22,96.463,246.525,96.849z
			 M249.816,90.848c0.128,0.103,0.23,0.179,0.332,0.281c-0.025-0.255-0.025-0.538-0.025-0.795v-6.104
			c0-0.205-0.179-0.307-0.511-0.307h-1.021v0.102c0,1.438-0.127,2.949-0.406,4.54c-0.053,0.23-0.078,0.435-0.129,0.641
			C248.72,89.797,249.307,90.334,249.816,90.848z M252.011,96.463c0.46,0.36,1.021,1.104,1.684,2.18
			c0.409,0.719,0.612,1.257,0.612,1.721c0,0.408-0.127,0.716-0.383,0.922c-0.28,0.307-0.689,0.463-1.224,0.487
			c-0.485,0-0.843-0.104-1.072-0.256c-0.153-0.103-0.256-0.257-0.306-0.462c-0.511-0.899-1.226-2-2.145-3.384
			c-0.05-0.104-0.05-0.207-0.05-0.311c0-0.154,0.025-0.358,0.126-0.614c0.129-0.256,0.384-0.463,0.741-0.615
			c0.255-0.103,0.484-0.181,0.714-0.181C251.296,95.951,251.73,96.131,252.011,96.463z"/>
		<path fill="#221E1F" d="M275.951,79.718c0.026-0.385,0.18-0.745,0.484-1.078c0.256-0.204,0.664-0.308,1.225-0.308
			c0.587,0,1.022,0.127,1.277,0.335c0.306,0.255,0.483,0.613,0.509,1.051h4.595c0.407,0,0.714,0.102,0.918,0.28
			c0.178,0.155,0.281,0.463,0.281,0.924c0,0.385-0.078,0.668-0.229,0.82c-0.206,0.257-0.537,0.385-0.97,0.385h-4.595v1.002h4.186
			c0.409,0,0.688,0.075,0.867,0.229c0.153,0.153,0.229,0.462,0.229,0.872c0,0.358-0.076,0.59-0.203,0.744
			c-0.205,0.257-0.484,0.358-0.894,0.358h-4.186v1h4.798c0.46,0,0.79,0.104,0.996,0.257c0.178,0.179,0.28,0.487,0.28,0.948
			c0,0.41-0.076,0.693-0.23,0.897c-0.256,0.283-0.586,0.411-1.046,0.411h-12.682c-0.051,0-0.077,0-0.077,0
			c-0.05,0.051-0.103,0.104-0.103,0.104c-0.203,0.256-0.509,0.385-0.893,0.385c-0.408,0-0.688-0.053-0.867-0.181
			c-0.152-0.103-0.229-0.231-0.229-0.409c-0.204-0.668-0.434-1.411-0.713-2.284v13.902c0,0.408-0.104,0.741-0.309,1.051
			c-0.255,0.358-0.688,0.564-1.275,0.564c-0.561,0-0.97-0.206-1.25-0.564c-0.254-0.282-0.356-0.643-0.356-1.051V87.462
			c-0.409,2.513-0.74,4.153-0.996,4.898c-0.128,0.409-0.483,0.59-1.096,0.59c-0.46,0-0.792-0.128-0.996-0.385
			c-0.28-0.154-0.408-0.513-0.408-1.026c0-0.204,0.026-0.513,0.102-0.948c0.511-1.975,0.893-4.104,1.2-6.36
			c0.152-0.462,0.433-0.692,0.893-0.692c0.485,0,0.868,0.103,1.122,0.307c0.077,0.053,0.127,0.104,0.18,0.155v-3.77
			c0-0.513,0.153-0.897,0.459-1.182c0.229-0.28,0.613-0.436,1.147-0.436c0.459,0,0.843,0.155,1.148,0.436
			c0.28,0.284,0.436,0.669,0.436,1.182v3c0.151-0.051,0.279-0.102,0.407-0.102c0.406,0,0.688,0.151,0.892,0.409
			c0.357,0.436,0.767,1.308,1.227,2.616c0,0.076,0.025,0.152,0.076,0.205c0.101,0,0.179-0.026,0.28-0.026h4.389v-1h-3.572
			c-0.383,0-0.664-0.077-0.843-0.256c-0.177-0.154-0.254-0.436-0.254-0.847c0-0.41,0.077-0.719,0.254-0.872
			c0.155-0.154,0.435-0.229,0.843-0.229h3.572v-1.002h-4.466c-0.407,0-0.713-0.076-0.919-0.282
			c-0.203-0.152-0.279-0.462-0.279-0.923s0.076-0.769,0.279-0.924c0.18-0.179,0.485-0.28,0.919-0.28H275.951z M282.152,89.643
			c1.504,0,2.271,0.768,2.271,2.307v7.412c0,0.975-0.23,1.642-0.664,1.948c-0.485,0.358-1.199,0.565-2.118,0.565
			c-1.275-0.051-2.525-0.207-3.774-0.513c-0.562-0.23-0.817-0.591-0.817-1.104c0.051-0.924,0.382-1.41,0.994-1.487
			c0.204,0,0.384,0.026,0.561,0.026c0.613,0.257,1.38,0.358,2.247,0.358c0.255,0,0.383-0.23,0.383-0.691v-0.719h-6.966v2.718
			c0,0.564-0.153,0.974-0.435,1.181c-0.255,0.204-0.638,0.334-1.173,0.334c-0.588,0-0.995-0.154-1.199-0.411
			c-0.255-0.282-0.383-0.642-0.383-1.104V91.95c0-1.539,0.714-2.307,2.193-2.307H282.152z M281.233,92.848v-0.487
			c0-0.257-0.102-0.411-0.281-0.411h-6.097c-0.409,0-0.588,0.154-0.588,0.411v0.487H281.233z M281.233,95.747v-0.897h-6.966v0.897
			H281.233z"/>
		<path fill="#221E1F" d="M311.859,84.923c1.325,0,2.016,0.692,2.016,2.026v5c0,1.334-0.69,2.001-2.016,2.001h-0.153l-1.2,3.898
			h3.649c0.562,0,0.995,0.128,1.25,0.386c0.231,0.204,0.357,0.614,0.357,1.229c0,0.487-0.103,0.846-0.306,1.076
			c-0.281,0.334-0.715,0.515-1.302,0.515h-19.725c-0.534,0-0.943-0.129-1.224-0.36c-0.256-0.23-0.383-0.641-0.383-1.23
			c0-0.615,0.127-1.025,0.383-1.257c0.255-0.23,0.663-0.358,1.224-0.358h3.726l-1.249-3.898h-0.076
			c-1.354,0-2.018-0.667-2.018-2.001v-5c0-1.334,0.663-2.026,2.018-2.026H311.859z M313.875,80.026c0.562,0,0.969,0.128,1.225,0.332
			c0.229,0.205,0.357,0.59,0.357,1.181c0,0.487-0.102,0.846-0.281,1.077c-0.306,0.359-0.739,0.514-1.301,0.514h-19.138
			c-0.562,0-0.97-0.104-1.226-0.359c-0.255-0.23-0.382-0.643-0.382-1.231c0-0.564,0.127-0.976,0.382-1.181
			c0.256-0.204,0.664-0.332,1.226-0.332H313.875z M310.38,90.334v-1.796c0-0.383-0.206-0.59-0.612-0.59h-10.845
			c-0.409,0-0.613,0.207-0.613,0.59v1.796c0,0.411,0.204,0.616,0.613,0.616h10.845C310.174,90.951,310.38,90.746,310.38,90.334z
			 M306.73,97.849l1.199-3.898h-7.247l1.251,3.898H306.73z"/>
	</g>
</g>
<path fill="#EE4529" d="M45.968,52.477V29.59c0-13.012-8.45-23.378-24.592-26.227L2.724,0.085c-2.163-0.382-2.72,0.557-2.72,2.255
	v0.049L0,19.551v24.28L45.968,52.477z M31.237,27.438c0,3.99-2.694,6.938-8.884,5.843l-7.623-1.345V17.019l7.623,1.349
	C28.543,19.464,31.237,23.295,31.237,27.438z"/>
<path fill="#00A89C" d="M0,48.465v22.889c0,13.011,8.449,23.377,24.592,26.224l18.654,3.28c2.161,0.383,2.718-0.558,2.718-2.254
	v-0.049l0.004-17.165V57.11L0,48.465z M14.731,73.504c0-3.99,2.694-6.938,8.886-5.842l7.621,1.345v14.918l-7.621-1.349
	C17.425,81.479,14.731,77.646,14.731,73.504z"/>
</svg>
